<?xml version="1.0" encoding="utf-8"?>
<!-- Generator: Adobe Illustrator 24.0.1, SVG Export Plug-In . SVG Version: 6.00 Build 0)  -->
<svg version="1.1" id="Capa_1" xmlns:xodm="http://www.corel.com/coreldraw/odm/2003"
	 xmlns="http://www.w3.org/2000/svg" xmlns:xlink="http://www.w3.org/1999/xlink" x="0px" y="0px" viewBox="0 0 330 125.5"
	 style="enable-background:new 0 0 330 125.5;" xml:space="preserve">
<style type="text/css">
	.st0{fill:#999999;}
	.st1{fill:none;stroke:#999999;stroke-width:0.216;stroke-miterlimit:10;}
	.st2{clip-path:url(#SVGID_2_);}
	.st3{fill:#FF91A0;}
	.st4{fill:none;stroke:#FFFFFF;stroke-width:1.0001;stroke-miterlimit:10;}
	.st5{fill-rule:evenodd;clip-rule:evenodd;fill:#FF9999;stroke:#FF9999;stroke-width:0.216;stroke-miterlimit:10;}
</style>
<g id="Capa_x0020_1">
	<path class="st0" d="M83.7,117.9l0.9,2.2c0.1,0.3,0.5,0.5,0.8,0.5c0.1,0,0.2,0,0.3-0.1c0.4-0.2,0.7-0.7,0.5-1.1l-1.2-2.7
		c0,0,0,0,0,0l-2.6-6c-0.1-0.3-0.5-0.5-0.8-0.5c-0.4,0-0.7,0.2-0.8,0.5l-2.6,6c0,0,0,0,0,0l-1.2,2.7c-0.2,0.4,0,0.9,0.5,1.1
		c0.4,0.2,1,0,1.2-0.5l0.9-2.2H83.7z M81.7,113.3l1.3,2.9h-2.5L81.7,113.3z"/>
	<path id="_x31_" class="st0" d="M100.7,113c0.3,0.3,0.9,0.3,1.2,0c0.3-0.3,0.3-0.9,0-1.2c-2.1-2-5.4-2-7.5,0c-1,1-1.6,2.3-1.6,3.7
		c0,1.4,0.6,2.7,1.6,3.7c1,1,2.3,1.5,3.7,1.5c1.4,0,2.7-0.5,3.7-1.5c0.3-0.3,0.3-0.9,0-1.2c-0.3-0.3-0.9-0.3-1.2,0
		c-1.4,1.4-3.6,1.4-5,0c-1.4-1.4-1.4-3.6,0-4.9C97.1,111.6,99.3,111.6,100.7,113L100.7,113L100.7,113z"/>
	<path id="_x32_" class="st0" d="M116.5,113c0.3,0.3,0.9,0.3,1.2,0c0.3-0.3,0.3-0.9,0-1.2c-2.1-2-5.4-2-7.5,0c-1,1-1.6,2.3-1.6,3.7
		c0,1.4,0.6,2.7,1.6,3.7c1,1,2.3,1.5,3.7,1.5c1.4,0,2.7-0.5,3.7-1.5c0.3-0.3,0.3-0.9,0-1.2c-0.3-0.3-0.9-0.3-1.2,0
		c-1.4,1.4-3.6,1.4-5,0c-1.4-1.4-1.4-3.6,0-4.9C112.9,111.6,115.2,111.6,116.5,113L116.5,113L116.5,113z"/>
	<path id="_x33_" class="st0" d="M133,111.9c0.5,0,0.9-0.4,0.9-0.9c0-0.5-0.4-0.9-0.9-0.9h-7.5c-0.5,0-0.9,0.4-0.9,0.9v8.7
		c0,0.5,0.4,0.9,0.9,0.9h7.5c0.5,0,0.9-0.4,0.9-0.9c0-0.5-0.4-0.9-0.9-0.9h-6.7v-2.6h2.9c0.5,0,0.9-0.4,0.9-0.9
		c0-0.5-0.4-0.9-0.9-0.9h-2.9v-2.6H133L133,111.9z"/>
	<path id="_x34_" class="st0" d="M142.2,117.7c0-0.5-0.4-0.9-0.9-0.9c-0.5,0-0.9,0.4-0.9,0.9c0,0.8,0.4,1.6,1.1,2.1l0,0
		c0.7,0.5,1.6,0.8,2.4,0.8c0.9,0,1.8-0.3,2.4-0.8l0,0c0.8-0.6,1.2-1.6,1.1-2.5c-0.2-1-0.9-1.9-2.1-2.3l-2.3-0.9
		c-0.5-0.2-0.9-0.5-1-0.9c-0.1-0.3,0.1-0.6,0.4-0.9c0.7-0.6,2-0.6,2.7,0l0,0c0.3,0.2,0.4,0.5,0.4,0.8c0,0.5,0.4,0.9,0.9,0.9
		c0.5,0,0.9-0.4,0.9-0.9c0-0.8-0.4-1.6-1.1-2.1l0,0c-1.4-1-3.5-1-4.9,0c-0.8,0.6-1.2,1.6-1.1,2.5c0.2,1,0.9,1.9,2.1,2.3l2.3,0.9
		c0.5,0.2,0.9,0.5,1,0.9c0.1,0.3-0.1,0.6-0.4,0.9c-0.7,0.6-2,0.6-2.7,0l0,0C142.4,118.3,142.2,118,142.2,117.7L142.2,117.7
		L142.2,117.7z"/>
	<path id="_x35_" class="st0" d="M154.1,115.4c0,2.9,2.4,5.2,5.3,5.2c2.9,0,5.3-2.3,5.3-5.2c0-2.9-2.4-5.2-5.3-5.2
		C156.5,110.2,154.1,112.6,154.1,115.4L154.1,115.4z M159.4,111.9c2,0,3.5,1.6,3.5,3.5c0,1.9-1.6,3.5-3.5,3.5c-2,0-3.5-1.6-3.5-3.5
		C155.9,113.5,157.4,111.9,159.4,111.9z"/>
	<path id="_x36_" class="st0" d="M180.5,114.1c0-2.1-1.8-3.9-3.9-3.9h-4.5c-0.5,0-0.9,0.4-0.9,0.9v8.7c0,0.5,0.4,0.9,0.9,0.9
		c0.5,0,0.9-0.4,0.9-0.9v-1.8h3.6c0.1,0,0.2,0,0.3,0l2.1,2.4c0.2,0.2,0.4,0.3,0.7,0.3c0.2,0,0.4-0.1,0.6-0.2
		c0.4-0.3,0.4-0.9,0.1-1.2l-1.6-1.9C179.8,116.7,180.5,115.4,180.5,114.1L180.5,114.1z M176.6,116.2H173v-4.3h3.6
		c1.2,0,2.2,1,2.2,2.1S177.8,116.2,176.6,116.2L176.6,116.2z"/>
	<path id="_x37_" class="st0" d="M188,120.6c0.5,0,0.9-0.4,0.9-0.9v-8.7c0-0.5-0.4-0.9-0.9-0.9c-0.5,0-0.9,0.4-0.9,0.9v8.7
		C187.1,120.2,187.5,120.6,188,120.6z"/>
	<path id="_x38_" class="st0" d="M195.4,115.4c0,2.9,2.4,5.2,5.3,5.2c2.9,0,5.3-2.3,5.3-5.2c0-2.9-2.4-5.2-5.3-5.2
		C197.8,110.2,195.4,112.6,195.4,115.4L195.4,115.4z M200.7,111.9c2,0,3.5,1.6,3.5,3.5c0,1.9-1.6,3.5-3.5,3.5c-2,0-3.5-1.6-3.5-3.5
		C197.2,113.5,198.7,111.9,200.7,111.9z"/>
	<path id="_x39_" class="st0" d="M214.3,117.7c0-0.5-0.4-0.9-0.9-0.9c-0.5,0-0.9,0.4-0.9,0.9c0,0.8,0.4,1.6,1.1,2.1l0,0
		c0.7,0.5,1.6,0.8,2.4,0.8c0.9,0,1.8-0.3,2.4-0.8l0,0c0.8-0.6,1.2-1.6,1.1-2.5c-0.2-1-0.9-1.9-2.1-2.3l-2.3-0.9
		c-0.5-0.2-0.9-0.5-1-0.9c-0.1-0.3,0.1-0.6,0.4-0.9c0.7-0.6,2-0.6,2.7,0l0,0c0.3,0.2,0.4,0.5,0.4,0.8c0,0.5,0.4,0.9,0.9,0.9
		c0.5,0,0.9-0.4,0.9-0.9c0-0.8-0.4-1.6-1.1-2.1l0,0c-1.4-1-3.5-1-4.9,0c-0.8,0.6-1.2,1.6-1.1,2.5c0.2,1,0.9,1.9,2.1,2.3l2.3,0.9
		c0.5,0.2,0.9,0.5,1,0.9c0.1,0.3-0.1,0.6-0.4,0.9c-0.7,0.6-2,0.6-2.7,0l0,0C214.5,118.3,214.3,118,214.3,117.7L214.3,117.7
		L214.3,117.7z"/>
	<path id="_x31_0" class="st1" d="M83.7,117.9l0.9,2.2c0.1,0.3,0.5,0.5,0.8,0.5c0.1,0,0.2,0,0.3-0.1c0.4-0.2,0.7-0.7,0.5-1.1
		l-1.2-2.7c0,0,0,0,0,0l-2.6-6c-0.1-0.3-0.5-0.5-0.8-0.5c-0.4,0-0.7,0.2-0.8,0.5l-2.6,6c0,0,0,0,0,0l-1.2,2.7
		c-0.2,0.4,0,0.9,0.5,1.1c0.4,0.2,1,0,1.2-0.5l0.9-2.2H83.7z M81.7,113.3l1.3,2.9h-2.5L81.7,113.3z"/>
	<path id="_x31_1" class="st1" d="M100.7,113c0.3,0.3,0.9,0.3,1.2,0c0.3-0.3,0.3-0.9,0-1.2c-2.1-2-5.4-2-7.5,0c-1,1-1.6,2.3-1.6,3.7
		c0,1.4,0.6,2.7,1.6,3.7c1,1,2.3,1.5,3.7,1.5c1.4,0,2.7-0.5,3.7-1.5c0.3-0.3,0.3-0.9,0-1.2c-0.3-0.3-0.9-0.3-1.2,0
		c-1.4,1.4-3.6,1.4-5,0c-1.4-1.4-1.4-3.6,0-4.9C97.1,111.6,99.3,111.6,100.7,113L100.7,113L100.7,113z"/>
	<path id="_x31_2" class="st1" d="M116.5,113c0.3,0.3,0.9,0.3,1.2,0c0.3-0.3,0.3-0.9,0-1.2c-2.1-2-5.4-2-7.5,0c-1,1-1.6,2.3-1.6,3.7
		c0,1.4,0.6,2.7,1.6,3.7c1,1,2.3,1.5,3.7,1.5c1.4,0,2.7-0.5,3.7-1.5c0.3-0.3,0.3-0.9,0-1.2c-0.3-0.3-0.9-0.3-1.2,0
		c-1.4,1.4-3.6,1.4-5,0c-1.4-1.4-1.4-3.6,0-4.9C112.9,111.6,115.2,111.6,116.5,113L116.5,113L116.5,113z"/>
	<path id="_x31_3" class="st1" d="M133,111.9c0.5,0,0.9-0.4,0.9-0.9c0-0.5-0.4-0.9-0.9-0.9h-7.5c-0.5,0-0.9,0.4-0.9,0.9v8.7
		c0,0.5,0.4,0.9,0.9,0.9h7.5c0.5,0,0.9-0.4,0.9-0.9c0-0.5-0.4-0.9-0.9-0.9h-6.7v-2.6h2.9c0.5,0,0.9-0.4,0.9-0.9
		c0-0.5-0.4-0.9-0.9-0.9h-2.9v-2.6H133L133,111.9z"/>
	<path id="_x31_4" class="st1" d="M142.2,117.7c0-0.5-0.4-0.9-0.9-0.9c-0.5,0-0.9,0.4-0.9,0.9c0,0.8,0.4,1.6,1.1,2.1l0,0
		c0.7,0.5,1.6,0.8,2.4,0.8c0.9,0,1.8-0.3,2.4-0.8l0,0c0.8-0.6,1.2-1.6,1.1-2.5c-0.2-1-0.9-1.9-2.1-2.3l-2.3-0.9
		c-0.5-0.2-0.9-0.5-1-0.9c-0.1-0.3,0.1-0.6,0.4-0.9c0.7-0.6,2-0.6,2.7,0l0,0c0.3,0.2,0.4,0.5,0.4,0.8c0,0.5,0.4,0.9,0.9,0.9
		c0.5,0,0.9-0.4,0.9-0.9c0-0.8-0.4-1.6-1.1-2.1l0,0c-1.4-1-3.5-1-4.9,0c-0.8,0.6-1.2,1.6-1.1,2.5c0.2,1,0.9,1.9,2.1,2.3l2.3,0.9
		c0.5,0.2,0.9,0.5,1,0.9c0.1,0.3-0.1,0.6-0.4,0.9c-0.7,0.6-2,0.6-2.7,0l0,0C142.4,118.3,142.2,118,142.2,117.7L142.2,117.7
		L142.2,117.7z"/>
	<path id="_x31_5" class="st1" d="M154.1,115.4c0,2.9,2.4,5.2,5.3,5.2c2.9,0,5.3-2.3,5.3-5.2c0-2.9-2.4-5.2-5.3-5.2
		C156.5,110.2,154.1,112.6,154.1,115.4L154.1,115.4z M159.4,111.9c2,0,3.5,1.6,3.5,3.5c0,1.9-1.6,3.5-3.5,3.5c-2,0-3.5-1.6-3.5-3.5
		C155.9,113.5,157.4,111.9,159.4,111.9z"/>
	<path id="_x31_6" class="st1" d="M180.5,114.1c0-2.1-1.8-3.9-3.9-3.9h-4.5c-0.5,0-0.9,0.4-0.9,0.9v8.7c0,0.5,0.4,0.9,0.9,0.9
		c0.5,0,0.9-0.4,0.9-0.9v-1.8h3.6c0.1,0,0.2,0,0.3,0l2.1,2.4c0.2,0.2,0.4,0.3,0.7,0.3c0.2,0,0.4-0.1,0.6-0.2
		c0.4-0.3,0.4-0.9,0.1-1.2l-1.6-1.9C179.8,116.7,180.5,115.4,180.5,114.1L180.5,114.1z M176.6,116.2H173v-4.3h3.6
		c1.2,0,2.2,1,2.2,2.1S177.8,116.2,176.6,116.2L176.6,116.2z"/>
	<path id="_x31_7" class="st1" d="M188,120.6c0.5,0,0.9-0.4,0.9-0.9v-8.7c0-0.5-0.4-0.9-0.9-0.9c-0.5,0-0.9,0.4-0.9,0.9v8.7
		C187.1,120.2,187.5,120.6,188,120.6z"/>
	<path id="_x31_8" class="st1" d="M195.4,115.4c0,2.9,2.4,5.2,5.3,5.2c2.9,0,5.3-2.3,5.3-5.2c0-2.9-2.4-5.2-5.3-5.2
		C197.8,110.2,195.4,112.6,195.4,115.4L195.4,115.4z M200.7,111.9c2,0,3.5,1.6,3.5,3.5c0,1.9-1.6,3.5-3.5,3.5c-2,0-3.5-1.6-3.5-3.5
		C197.2,113.5,198.7,111.9,200.7,111.9z"/>
	<path id="_x31_9" class="st1" d="M214.3,117.7c0-0.5-0.4-0.9-0.9-0.9c-0.5,0-0.9,0.4-0.9,0.9c0,0.8,0.4,1.6,1.1,2.1l0,0
		c0.7,0.5,1.6,0.8,2.4,0.8c0.9,0,1.8-0.3,2.4-0.8l0,0c0.8-0.6,1.2-1.6,1.1-2.5c-0.2-1-0.9-1.9-2.1-2.3l-2.3-0.9
		c-0.5-0.2-0.9-0.5-1-0.9c-0.1-0.3,0.1-0.6,0.4-0.9c0.7-0.6,2-0.6,2.7,0l0,0c0.3,0.2,0.4,0.5,0.4,0.8c0,0.5,0.4,0.9,0.9,0.9
		c0.5,0,0.9-0.4,0.9-0.9c0-0.8-0.4-1.6-1.1-2.1l0,0c-1.4-1-3.5-1-4.9,0c-0.8,0.6-1.2,1.6-1.1,2.5c0.2,1,0.9,1.9,2.1,2.3l2.3,0.9
		c0.5,0.2,0.9,0.5,1,0.9c0.1,0.3-0.1,0.6-0.4,0.9c-0.7,0.6-2,0.6-2.7,0l0,0C214.5,118.3,214.3,118,214.3,117.7L214.3,117.7
		L214.3,117.7z"/>
	<g id="_2438605057440">
		<g>
			<defs>
				<rect id="SVGID_1_" x="-6.9" y="-6.6" width="330.4" height="132.1"/>
			</defs>
			<clipPath id="SVGID_2_">
				<use xlink:href="#SVGID_1_"  style="overflow:visible;"/>
			</clipPath>
			<g class="st2">
			</g>
		</g>
	</g>
	<path class="st3" d="M10.5,23.2c-6.6,11.2-5.2,26.4,6.3,31.7c1.4,0.7,2.3-0.9,0.8-1.6c-10.6-5-11.4-19.1-5.3-29
		C25.3,3.3,62.1,3.9,58,42C56.3,57.1,48.2,69.9,31.6,75c0.2-14.9,1.2-30.1,3.1-40.8c1.1-4.5-9.3-7.1-10.2-1.5
		c-2.1,17.9-2.2,60.3,0.6,80.1c0.4,2.9,8.1,1.2,7.9-0.4c-0.9-9-1.4-21.7-1.4-34.9C47.9,80.4,64.9,67.2,68.1,45
		C74.1,2.6,26.7-4.2,10.5,23.2L10.5,23.2z"/>
	<path id="_x31__1_" class="st3" d="M100.5,71.9c-4.2,14.3-13.9,20.8-17.9,17.5c-3.2-2.6-3.1-10.9-2.6-15.1c2.7-0.6,5.5-1.5,7.7-3.2
		c7.7-5.9,2.6-14.5-7.1-12C66.5,62.8,65.7,88.7,79.2,93c11.1,3.5,19.7-8.2,23.1-20.6C102.5,71.7,100.7,71.3,100.5,71.9L100.5,71.9z
		 M84.9,63.7c4.6-4.3,6.4,1.8,1.6,5.7c-1.7,1.4-3.9,2.3-6,2.8C81.2,69.3,82.6,65.7,84.9,63.7z"/>
	<path id="_x32__1_" class="st3" d="M134.9,75.2c-2.6,13.3-10.8,27.5-13.4,26.6c-2.3-0.8-1.6-6.3,0-12.8
		c5.2-20.7-7.4-15.9-13.1-19.6c1.5-5.4,1.8-8.1,1.5-11.3c-0.3-3.9-2.4-6.2-4.7-6.3c-8-0.4-12.2,16.8-3.7,24.4
		c5.3,4.8,12.4,0,9.6,12.5c-1.7,7.6,1.1,16.5,8.1,17c9.4,0.6,15.9-21.5,17.5-30.3C136.8,74.7,135,74.4,134.9,75.2z M107,68.1
		c-6.2-6.2-4.5-13.6-1.6-13.7c1.1,0,2.1,1.1,2.4,3.9C108.1,61,107.7,63.2,107,68.1z"/>
	<path id="_x33__1_" class="st3" d="M157.7,74.8c-1.4,9-3.9,14.7-6.8,14.2c-3.3-0.6-4.3-15.4-3.2-20.5c0.4-2-10.3-3.3-10.2-0.8
		c0,8.6,0.8,25.3,11.5,25.4c7.5,0,9.6-10.5,10.5-18C159.6,74.6,157.8,74.4,157.7,74.8z M147.2,60.1c0,2.2-1.9,3.9-4.2,3.9
		c-2.3,0-4.2-1.7-4.2-3.9c0-2.1,1.9-3.8,4.2-3.8C145.4,56.2,147.3,57.9,147.2,60.1z"/>
	<path id="_x34__1_" class="st3" d="M207.4,74.2c-3.8,14.7-14.7,26.4-18.6,25.2c-4.7-1.5-5.3-21.5-5.1-26.5
		c11.1-9.8,23-31.3,20.3-44.4c-1.7-8.8-11.8-11.4-18.4-5.1c-7,6.7-11.2,24.1-11.9,41.1c-1.5-2.8-3.7-4.9-7.3-5.4
		c-17.1-2.4-18.1,34.1-2.6,34.1c5.2,0,8.4-5.9,10.4-10.7c1.6,12.3,5.5,21.5,12.2,21.6c10,0.1,19.8-16.9,22.7-29.5
		C209.4,73.6,207.6,73.3,207.4,74.2L207.4,74.2z M189.7,26.9c3.4-7.4,10.7-4.4,12.1,2.2c2.6,12.2-8.6,32.2-17.9,41.2
		C184.6,59.3,185.6,35.5,189.7,26.9z M166.2,89.8c-4.1,0-4.3-27.5,2-27.4c1.7,0,4.4,3.6,5.4,8.3c0,2.4,0.1,4.8,0.3,7.2
		C171.5,85,168,89.8,166.2,89.8z"/>
	<path id="_x35__1_" class="st3" d="M244.9,75.1c-2.9,3.6-7.7,5.7-12.4,5.3c0.2-1.4,0.1-2.5,0.1-4.4c0-8.6-3.5-12.4-7-12.7
		c-8.4-0.6-8.8,15.7,4.2,18.7c-0.8,4.4-3.4,11.5-7.8,11.5c-7.7,0.1-11.5-23.9-1-29.7c1.5-0.9,1.2-2.4-0.2-2.7
		c-21.5-5.2-23.3,39.8,0.8,36.4c6.9-1,9.1-8.4,10.5-15.2c5.4,0.4,10.8-1.8,14.2-6.2C246.9,75.4,245.4,74.4,244.9,75.1L244.9,75.1z
		 M225.8,65.7c2.3-0.2,5,2.8,4.8,10.3c0,1.1-0.2,2.6-0.4,4C220.8,77.9,220.9,66,225.8,65.7L225.8,65.7z"/>
	<path id="_x36__1_" class="st3" d="M320.5,42.2c-8.1-6.5-24.1-5.6-35-4.6c-7.4,0.7-17,2-26,2.9c0.9-6.7,1.7-12.1,2.2-14.9
		c1.2-6.2-9.4-8.2-10.2-1.1c-0.4,3.6-1.2,9.6-1.8,16.6c-8.8,0.3-14.6-0.7-16.5-4.4c-0.4-0.7-0.5-1.6-0.5-2.4l0,0
		c0-1.2-1.3-2-2.2-1.8c-1.1,0.3-1.4,1.5-1.1,2.6c0.4,1.1,1.1,2.1,1.9,3c3.9,4.1,9.5,5.1,18.4,4.7c-2.1,24.5-1.3,60.2,13.4,60.3
		c7.9,0,11-18.6,12.3-27.4c0.1-0.8-1.7-1-1.8-0.3c-1.4,8.4-5.6,22.6-9.1,23.4c-8.3,1.8-7.9-34.1-5.1-56.7c7.9-0.8,16.8-2.1,26.3-2.9
		c10.1-0.9,26.1-1.9,33.7,4.5C321.1,45,322.2,43.5,320.5,42.2L320.5,42.2z"/>
	<path id="_x37__1_" class="st4" d="M10.5,23.2c-6.6,11.2-5.2,26.4,6.3,31.7c1.4,0.7,2.3-0.9,0.8-1.6c-10.6-5-11.4-19.1-5.3-29
		C25.3,3.3,62.1,3.9,58,42C56.3,57.1,48.2,69.9,31.6,75c0.2-14.9,1.2-30.1,3.1-40.8c1.1-4.5-9.3-7.1-10.2-1.5
		c-2.1,17.9-2.2,60.3,0.6,80.1c0.4,2.9,8.1,1.2,7.9-0.4c-0.9-9-1.4-21.7-1.4-34.9C47.9,80.4,64.9,67.2,68.1,45
		C74.1,2.6,26.7-4.2,10.5,23.2L10.5,23.2z"/>
	<path id="_x38__1_" class="st4" d="M100.5,71.9c-4.2,14.3-13.9,20.8-17.9,17.5c-3.2-2.6-3.1-10.9-2.6-15.1c2.7-0.6,5.5-1.5,7.7-3.2
		c7.7-5.9,2.6-14.5-7.1-12C66.5,62.8,65.7,88.7,79.2,93c11.1,3.5,19.7-8.2,23.1-20.6C102.5,71.7,100.7,71.3,100.5,71.9L100.5,71.9z
		 M84.9,63.7c4.6-4.3,6.4,1.8,1.6,5.7c-1.7,1.4-3.9,2.3-6,2.8C81.2,69.3,82.6,65.7,84.9,63.7z"/>
	<path id="_x39__1_" class="st4" d="M134.9,75.2c-2.6,13.3-10.8,27.5-13.4,26.6c-2.3-0.8-1.6-6.3,0-12.8
		c5.2-20.7-7.4-15.9-13.1-19.6c1.5-5.4,1.8-8.1,1.5-11.3c-0.3-3.9-2.4-6.2-4.7-6.3c-8-0.4-12.2,16.8-3.7,24.4
		c5.3,4.8,12.4,0,9.6,12.5c-1.7,7.6,1.1,16.5,8.1,17c9.4,0.6,15.9-21.5,17.5-30.3C136.8,74.7,135,74.4,134.9,75.2z M107,68.1
		c-6.2-6.2-4.5-13.6-1.6-13.7c1.1,0,2.1,1.1,2.4,3.9C108.1,61,107.7,63.2,107,68.1z"/>
	<path id="_x31_0_1_" class="st4" d="M157.7,74.8c-1.4,9-3.9,14.7-6.8,14.2c-3.3-0.6-4.3-15.4-3.2-20.5c0.4-2-10.3-3.3-10.2-0.8
		c0,8.6,0.8,25.3,11.5,25.4c7.5,0,9.6-10.5,10.5-18C159.6,74.6,157.8,74.4,157.7,74.8z M147.2,60.1c0,2.2-1.9,3.9-4.2,3.9
		c-2.3,0-4.2-1.7-4.2-3.9c0-2.1,1.9-3.8,4.2-3.8C145.4,56.2,147.3,57.9,147.2,60.1z"/>
	<path id="_x31_1_1_" class="st4" d="M207.4,74.2c-3.8,14.7-14.7,26.4-18.6,25.2c-4.7-1.5-5.3-21.5-5.1-26.5
		c11.1-9.8,23-31.3,20.3-44.4c-1.7-8.8-11.8-11.4-18.4-5.1c-7,6.7-11.2,24.1-11.9,41.1c-1.5-2.8-3.7-4.9-7.3-5.4
		c-17.1-2.4-18.1,34.1-2.6,34.1c5.2,0,8.4-5.9,10.4-10.7c1.6,12.3,5.5,21.5,12.2,21.6c10,0.1,19.8-16.9,22.7-29.5
		C209.4,73.6,207.6,73.3,207.4,74.2L207.4,74.2z M189.7,26.9c3.4-7.4,10.7-4.4,12.1,2.2c2.6,12.2-8.6,32.2-17.9,41.2
		C184.6,59.3,185.6,35.5,189.7,26.9z M166.2,89.8c-4.1,0-4.3-27.5,2-27.4c1.7,0,4.4,3.6,5.4,8.3c0,2.4,0.1,4.8,0.3,7.2
		C171.5,85,168,89.8,166.2,89.8z"/>
	<path id="_x31_2_1_" class="st4" d="M244.9,75.1c-2.9,3.6-7.7,5.7-12.4,5.3c0.2-1.4,0.1-2.5,0.1-4.4c0-8.6-3.5-12.4-7-12.7
		c-8.4-0.6-8.8,15.7,4.2,18.7c-0.8,4.4-3.4,11.5-7.8,11.5c-7.7,0.1-11.5-23.9-1-29.7c1.5-0.9,1.2-2.4-0.2-2.7
		c-21.5-5.2-23.3,39.8,0.8,36.4c6.9-1,9.1-8.4,10.5-15.2c5.4,0.4,10.8-1.8,14.2-6.2C246.9,75.4,245.4,74.4,244.9,75.1L244.9,75.1z
		 M225.8,65.7c2.3-0.2,5,2.8,4.8,10.3c0,1.1-0.2,2.6-0.4,4C220.8,77.9,220.9,66,225.8,65.7L225.8,65.7z"/>
	<path id="_x31_3_1_" class="st4" d="M320.5,42.2c-8.1-6.5-24.1-5.6-35-4.6c-7.4,0.7-17,2-26,2.9c0.9-6.7,1.7-12.1,2.2-14.9
		c1.2-6.2-9.4-8.2-10.2-1.1c-0.4,3.6-1.2,9.6-1.8,16.6c-8.8,0.3-14.6-0.7-16.5-4.4c-0.4-0.7-0.5-1.6-0.5-2.4l0,0
		c0-1.2-1.3-2-2.2-1.8c-1.1,0.3-1.4,1.5-1.1,2.6c0.4,1.1,1.1,2.1,1.9,3c3.9,4.1,9.5,5.1,18.4,4.7c-2.1,24.5-1.3,60.2,13.4,60.3
		c7.9,0,11-18.6,12.3-27.4c0.1-0.8-1.7-1-1.8-0.3c-1.4,8.4-5.6,22.6-9.1,23.4c-8.3,1.8-7.9-34.1-5.1-56.7c7.9-0.8,16.8-2.1,26.3-2.9
		c10.1-0.9,26.1-1.9,33.7,4.5C321.1,45,322.2,43.5,320.5,42.2L320.5,42.2z"/>
	<polygon class="st5" points="253.6,38.3 254.2,40.1 256.3,40.1 254.6,41.3 255.3,43.1 253.6,42 251.8,43.1 252.5,41.3 250.8,40.1 
		252.9,40.1 	"/>
	<polygon class="st5" points="85.2,80.4 86,82.7 88.7,82.7 86.5,84.1 87.4,86.4 85.2,85 83.1,86.4 83.9,84.1 81.7,82.7 84.4,82.7 	
		"/>
	<polygon class="st5" points="320.9,43.4 321.9,46.2 325.2,46.2 322.6,48 323.6,50.8 320.9,49.1 318.3,50.8 319.3,48 316.6,46.2 
		319.9,46.2 	"/>
	<polygon class="st5" points="194.9,31.7 195.8,34 198.4,34 196.3,35.4 197.1,37.7 194.9,36.2 192.8,37.7 193.6,35.4 191.5,34 
		194.1,34 	"/>
	<polygon class="st5" points="14.7,47 16.1,51 20.7,51 17,53.4 18.4,57.4 14.7,54.9 11,57.4 12.4,53.4 8.6,51 13.3,51 	"/>
	<polygon class="st5" points="220,80.3 220.9,82.6 223.5,82.6 221.4,84 222.2,86.3 220,84.9 217.9,86.3 218.7,84 216.6,82.6 
		219.2,82.6 	"/>
</g>
</svg>
