<svg id="Capa_1" data-name="Capa 1" xmlns="http://www.w3.org/2000/svg" viewBox="0 0 581.19 102.08"><path d="M21.5,103.52Q10.58,100.34,4,95.27l7.75-17.2a52.66,52.66,0,0,0,15.09,7.47,56.64,56.64,0,0,0,17.48,2.82q9.73,0,14.39-2.89c3.1-1.92,4.65-4.49,4.65-7.68a7.35,7.35,0,0,0-2.75-5.85,20.63,20.63,0,0,0-7.05-3.74q-4.3-1.41-11.63-3.1a160.49,160.49,0,0,1-18.47-5.36,30,30,0,0,1-12.34-8.6Q5.92,45.22,5.92,35.35a27.39,27.39,0,0,1,4.66-15.58q4.65-7,14-11.07T47.52,4.61A76.12,76.12,0,0,1,66,6.86a54.77,54.77,0,0,1,15.79,6.49l-7,17.34q-13.68-7.76-27.35-7.75-9.6,0-14.17,3.1a9.46,9.46,0,0,0-4.59,8.18q0,5.07,5.29,7.54t16.15,4.87A161.93,161.93,0,0,1,68.53,52a30.66,30.66,0,0,1,12.33,8.46Q86,66.23,86,76.1a27,27,0,0,1-4.72,15.43q-4.73,7-14.17,11.07t-23,4.09A81,81,0,0,1,21.5,103.52Z" transform="translate(-3.95 -4.61)"/><path d="M137.61,66.23,124.36,80v25h-22.7V6.3h22.7V52.41L168.07,6.3h25.38l-40.89,44L195.85,105H169.2Z" transform="translate(-3.95 -4.61)"/><path d="M242,66.23,228.7,80v25H206V6.3h22.7V52.41L272.41,6.3h25.38l-40.89,44L300.19,105H273.54Z" transform="translate(-3.95 -4.61)"/><path d="M386.76,86.67V105H310.34V6.3h74.58V24.63H333V46.06h45.82V63.83H333V86.67Z" transform="translate(-3.95 -4.61)"/><path d="M481.37,86.67V105H405V6.3h74.59V24.63H427.65V46.06h45.82V63.83H427.65V86.67Z" transform="translate(-3.95 -4.61)"/><path d="M565.05,10.67a33.88,33.88,0,0,1,14.88,12.41,34.24,34.24,0,0,1,5.21,19,34.36,34.36,0,0,1-5.21,19,33.3,33.3,0,0,1-14.88,12.41q-9.66,4.29-22.77,4.3H522.4V105H499.56V6.3h42.72Q555.39,6.3,565.05,10.67Zm-8.39,44.06Q562,50.29,562,42.11t-5.36-12.76q-5.35-4.44-15.65-4.44H522.4V59.17H541Q551.3,59.17,556.66,54.73Z" transform="translate(-3.95 -4.61)"/></svg>